<svg xmlns="http://www.w3.org/2000/svg" width="1067" height="1066" viewBox="0 0 1067 1066">
  <g id="Group_47" data-name="Group 47" transform="translate(-1158 -1182)">
    <g id="Polygon_1" data-name="Polygon 1" transform="translate(1434 1457)" fill="none">
      <path d="M337.072,0l128.75,98.547L515,258,465.822,417.453,337.072,516H177.928L49.178,417.453,0,258,49.178,98.547,177.928,0Z" stroke="none"/>
      <path d="M 178.2668151855469 1 L 50.03961181640625 99.1470947265625 L 1.0465087890625 258 L 50.03955078125 416.8528442382812 L 178.2668151855469 515 L 336.7330932617188 515 L 464.9603881835938 416.8528442382812 L 513.9534912109375 258 L 464.9603881835938 99.1470947265625 L 336.7330932617188 1 L 178.2668151855469 1 M 177.9280700683594 0 L 337.0718688964844 0 L 465.8218688964844 98.54721069335938 L 515 258 L 465.8218688964844 417.4527282714844 L 337.0718688964844 516 L 177.9280700683594 516 L 49.17807006835938 417.4527282714844 L 0 258 L 49.17813110351562 98.54721069335938 L 177.9280700683594 0 Z" stroke="none" fill="#fff"/>
    </g>
    <g id="Polygon_3" data-name="Polygon 3" transform="translate(1158 1182)" fill="none">
      <path d="M533.5,0,666.438,16.811,791.024,66.189l108.4,78.842,85.412,103.352,57.052,121.368L1067,501.51l-8.414,133.869L1017.18,762.948,945.382,876.2,847.7,968.023l-117.421,64.62L600.5,1066H466.5l-129.785-33.358L219.3,968.023,121.618,876.2,49.82,762.948,8.414,635.379,0,501.51,25.108,369.751,82.161,248.383l85.412-103.352,108.4-78.842L400.562,16.811Z" stroke="none"/>
      <path d="M 533.5 1.008056640625 L 400.8125 17.7874755859375 L 276.4625244140625 67.072265625 L 168.2628173828125 145.765380859375 L 83.01171875 248.923095703125 L 26.06689453125 370.0626831054688 L 1.005859375 501.5728759765625 L 9.4036865234375 635.1903076171875 L 50.7325439453125 762.5196533203125 L 122.3952026367188 875.5591430664062 L 219.8894653320312 967.2073974609375 L 337.0888061523438 1031.705078125 L 466.6290283203125 1065 L 600.3709716796875 1065 L 729.911376953125 1031.705078125 L 847.1105346679688 967.2073974609375 L 944.6047973632812 875.5591430664062 L 1016.267333984375 762.519775390625 L 1057.596313476562 635.1904296875 L 1065.994140625 501.572998046875 L 1040.933227539062 370.06298828125 L 983.98828125 248.9232788085938 L 898.7373046875 145.7656860351562 L 790.537841796875 67.072509765625 L 666.187744140625 17.78759765625 L 533.5 1.008056640625 M 533.5 0 L 666.438232421875 16.811279296875 L 791.0237426757812 66.189453125 L 899.4278564453125 145.031494140625 L 984.8394775390625 248.3834838867188 L 1041.891845703125 369.751708984375 L 1067 501.5098876953125 L 1058.58642578125 635.3793334960938 L 1017.179626464844 762.9483642578125 L 945.381591796875 876.2014770507812 L 847.7034912109375 968.0225219726562 L 730.2828369140625 1032.64208984375 L 600.4974365234375 1066 L 466.5025634765625 1066 L 336.7173461914062 1032.64208984375 L 219.2965087890625 968.0225219726562 L 121.618408203125 876.2014770507812 L 49.82025146484375 762.9482421875 L 8.41357421875 635.3792114257812 L 0 501.5097045898438 L 25.1082763671875 369.75146484375 L 82.1605224609375 248.3833618164062 L 167.572265625 145.0311889648438 L 275.9766845703125 66.189208984375 L 400.56201171875 16.8111572265625 L 533.5 0 Z" stroke="none" fill="#fff"/>
    </g>
  </g>
</svg>
